<svg width="1069" height="516" viewBox="0 0 1069 516" fill="none" xmlns="http://www.w3.org/2000/svg">
<rect x="-5" y="118" width="1074" height="295" fill="#F6FBFF"/>
<g clip-path="url(#clip0_18_268)">
<mask id="mask0_18_268" style="mask-type:luminance" maskUnits="userSpaceOnUse" x="0" y="413" width="1069" height="103">
<path d="M0 413H1069V516H0V413Z" fill="white"/>
</mask>
<g mask="url(#mask0_18_268)">
<path fill-rule="evenodd" clip-rule="evenodd" d="M0 -12.6345C113.534 -76.124 221.916 -88.0824 325.145 -48.5089C479.989 10.851 664.802 -8.9354 766.232 -48.5089C867.661 -88.0824 870.564 -136.335 1069 -84.7908C1267.44 -33.2464 1069 432.574 1069 432.574C1069 432.574 911.703 527.556 629.628 480.066C441.577 448.405 231.701 460.422 0 516.116V-12.6345Z" fill="#F6FBFF"/>
</g>
</g>
<g clip-path="url(#clip1_18_268)">
<mask id="mask1_18_268" style="mask-type:luminance" maskUnits="userSpaceOnUse" x="4" y="0" width="1074" height="123">
<path d="M4 0H1078V123H4V0Z" fill="white"/>
</mask>
<g mask="url(#mask1_18_268)">
<path fill-rule="evenodd" clip-rule="evenodd" d="M4 95.12C118.066 31.2494 226.954 19.2193 330.666 59.0303C486.234 118.746 671.912 98.8413 773.816 59.0303C875.719 19.2193 878.636 -29.3225 1078 22.5306C1277.36 74.3844 1078 543.001 1078 543.001C1078 543.001 919.968 638.553 636.573 590.777C447.643 558.926 236.785 571.015 4 627.044V95.12Z" fill="#F6FBFF"/>
</g>
</g>
<g clip-path="url(#clip2_18_268)">
<path opacity="0.1" d="M673.379 436C710.039 436 739.758 430.936 739.758 424.689C739.758 418.442 710.039 413.378 673.379 413.378C636.719 413.378 607 418.442 607 424.689C607 430.936 636.719 436 673.379 436Z" fill="#00C7FA"/>
<path opacity="0.1" d="M926.625 433.322C963.285 433.322 993.004 428.258 993.004 422.011C993.004 415.764 963.285 410.7 926.625 410.7C889.965 410.7 860.246 415.764 860.246 422.011C860.246 428.258 889.965 433.322 926.625 433.322Z" fill="#00C7FA"/>
<path opacity="0.1" d="M710.494 120.174C693.145 121.101 675.615 126.17 662.079 137.067C650.203 146.631 641.637 161.669 643.727 176.778C646.193 194.614 662.105 207.588 668.008 224.602C671.806 235.539 671.214 247.608 668.728 258.923C667.129 266.214 664.67 273.512 659.944 279.29C651.432 289.684 636.071 294.701 631.888 307.468C627.34 321.351 638.801 334.966 649.569 344.84C658.164 352.719 667.167 360.56 677.999 364.879C685.919 368.04 694.514 369.175 703.034 369.627C726.561 370.862 750.082 367.103 772.053 358.599C782.579 354.515 792.762 349.336 803.779 346.873C827.257 341.623 851.413 349.193 875.208 352.738C895.605 355.768 916.333 355.829 936.748 352.919C949.593 351.086 962.865 347.778 972.539 339.134C982.345 330.357 987.248 316.772 986.705 303.609C986.162 290.446 980.61 277.774 972.434 267.44C961.873 254.092 947.308 244.595 934.636 233.22C921.732 221.631 910.755 208.062 902.117 193.022C897.139 184.347 892.904 175.141 886.454 167.503C876.396 155.6 861.807 148.521 847.231 143.052C813.604 130.455 778.725 127.89 743.665 122.323C732.708 120.577 721.594 119.593 710.494 120.174Z" fill="#00C7FA"/>
<g opacity="0.7">
<path d="M704.509 258.459H776.53V298.706H704.509V258.459Z" fill="#F6F7F9"/>
<path opacity="0.2" d="M718.068 283.824C722.209 283.824 725.565 280.467 725.565 276.326C725.565 272.185 722.209 268.828 718.068 268.828C713.927 268.828 710.57 272.185 710.57 276.326C710.57 280.467 713.927 283.824 718.068 283.824Z" fill="#00C7FA"/>
<path opacity="0.2" d="M734.708 267.439H767.376V269.495H734.708V267.439ZM734.708 272.678H751.351V274.734H734.708V272.678ZM734.708 277.917H761.625V279.972H734.708V277.917ZM734.708 283.156H767.376V285.211H734.708V283.156ZM758.34 290.718H767.38V294.689H758.34V290.718Z" fill="#00C7FA"/>
<path d="M765.144 147.231H837.165V187.478H765.144V147.231Z" fill="#F6F7F9"/>
<path opacity="0.2" d="M778.706 172.595C782.847 172.595 786.204 169.238 786.204 165.097C786.204 160.956 782.847 157.599 778.706 157.599C774.565 157.599 771.208 160.956 771.208 165.097C771.208 169.238 774.565 172.595 778.706 172.595Z" fill="#00C7FA"/>
<path opacity="0.2" d="M795.346 156.211H828.015V158.266H795.346V156.211ZM795.346 161.45H811.989V163.505H795.346V161.45ZM795.346 166.688H822.263V168.744H795.346V166.688ZM795.346 171.931H828.015V173.987H795.346V171.931ZM818.974 179.489H828.015V183.461H818.974V179.489Z" fill="#00C7FA"/>
<path d="M789.115 214.803H861.136V255.05H789.115V214.803Z" fill="#F6F7F9"/>
<path opacity="0.2" d="M802.674 240.171C806.815 240.171 810.172 236.814 810.172 232.673C810.172 228.532 806.815 225.175 802.674 225.175C798.533 225.175 795.176 228.532 795.176 232.673C795.176 236.814 798.533 240.171 802.674 240.171Z" fill="#00C7FA"/>
<path opacity="0.2" d="M819.318 223.787H851.987V225.843H819.318V223.787ZM819.318 229.026H835.962V231.081H819.318V229.026ZM819.318 234.265H846.235V236.32H819.318V234.265ZM819.318 239.503H851.987V241.559H819.318V239.503ZM842.946 247.065H851.987V251.037H842.946V247.065Z" fill="#00C7FA"/>
</g>
<path d="M679.368 171.185H800.475V239.617H679.368V171.185Z" fill="url(#paint0_linear_18_268)"/>
<path d="M680.224 172.033H799.63V238.764H680.224V172.033Z" fill="#F6F7F9"/>
<path opacity="0.2" d="M702.702 214.09C709.568 214.09 715.133 208.524 715.133 201.659C715.133 194.793 709.568 189.228 702.702 189.228C695.837 189.228 690.271 194.793 690.271 201.659C690.271 208.524 695.837 214.09 702.702 214.09Z" fill="#00C7FA"/>
<path opacity="0.2" d="M730.298 186.923H784.465V190.329H730.298V186.923ZM730.298 195.613H757.891V199.019H730.298V195.613ZM730.298 204.299H774.927V207.705H730.298V204.299ZM730.298 212.985H784.465V216.391H730.298V212.985Z" fill="#00C7FA"/>
<path d="M769.473 225.522H784.461V232.107H769.473V225.522Z" fill="#00C7FA"/>
<path d="M764.318 263.63H879.508V328H764.318V263.63Z" fill="url(#paint1_linear_18_268)"/>
<path d="M765.113 264.071H878.711V327.555H765.113V264.071Z" fill="#F6F7F9"/>
<path opacity="0.2" d="M786.502 304.084C793.034 304.084 798.329 298.789 798.329 292.256C798.329 285.724 793.034 280.429 786.502 280.429C779.97 280.429 774.674 285.724 774.674 292.256C774.674 298.789 779.97 304.084 786.502 304.084Z" fill="#00C7FA"/>
<path opacity="0.2" d="M812.751 278.238H864.282V281.478H812.751V278.238ZM812.751 286.505H839.001V289.745H812.751V286.505ZM812.751 294.769H855.207V298.009H812.751V294.769ZM812.751 303.032H864.282V306.272H812.751V303.032Z" fill="#00C7FA"/>
<path opacity="0.5" d="M850.021 314.958H864.282V321.223H850.021V314.958Z" fill="#00C7FA"/>
<path opacity="0.1" d="M638.251 228.592L638.53 228.653C638.449 228.597 638.348 228.575 638.251 228.592Z" fill="url(#paint2_linear_18_268)"/>
<path d="M696.604 272.407C695.77 266.81 690.686 253.752 690.686 253.752C690.596 253.375 690.498 252.975 690.385 252.591C686.775 240.186 681.782 239.088 681.782 239.088L663.893 235.275C664.041 235.368 664.169 235.488 664.271 235.63L663.988 235.675C663.167 234.707 662.624 233.533 662.419 232.281C662.385 232.096 662.355 231.903 662.332 231.707C663.618 230.455 664.62 228.943 665.273 227.271C665.926 225.599 666.213 223.807 666.116 222.015C666.019 220.223 665.539 218.473 664.71 216.881C663.88 215.29 662.72 213.895 661.306 212.789C661.121 212.642 660.929 212.502 660.733 212.363C661.578 211.469 661.604 210.22 660.974 208.968C659.564 206.038 656.501 204.186 653.348 203.284C650.942 202.594 648.332 202.372 645.949 203.126C644.587 203.556 643.35 204.284 642.075 204.921C639.699 206.109 637.082 207.049 635.286 208.998C634.868 209.455 634.487 210.036 634.608 210.635C634.702 211.084 635.053 211.427 635.283 211.827C635.792 212.717 635.66 213.837 635.317 214.807C634.973 215.776 634.453 216.693 634.208 217.673C633.963 218.654 634.061 219.838 634.807 220.547C635.17 220.831 635.548 221.095 635.939 221.339C636.349 221.686 636.708 222.088 637.006 222.535L639.126 225.397C640.115 226.666 640.998 228.015 641.766 229.429C642.29 230.466 642.701 231.579 643.407 232.507C643.614 232.783 643.85 233.036 644.112 233.261C644.044 233.235 643.972 233.212 643.904 233.182C644.217 233.486 644.588 233.724 644.995 233.88C645.402 234.037 645.837 234.108 646.273 234.091H646.378C646.54 234.088 646.695 234.025 646.812 233.914V234.291C646.85 235.667 646.846 237.131 646.748 238.504L646.582 238.421C646.336 238.297 646.061 238.247 645.787 238.276C645.514 238.305 645.254 238.411 645.04 238.583L628.562 251.784C628.562 251.784 624.983 256.687 625.48 265.135L622.595 277.815C622.595 277.815 618.986 288.576 621.762 296.258C624.538 303.941 626.148 308.327 626.148 308.327C626.148 308.327 627.257 317.055 628.924 317.756C630.591 318.458 631.311 318.858 631.311 318.858L631.643 320.943C631.643 320.943 631.753 321.143 631.949 321.49C633.163 323.599 637.655 331.044 640.269 330.252C640.595 332.273 640.738 334.319 640.695 336.365L643.275 353.715C643.275 353.715 645.077 358.433 644.968 360.904C644.859 363.374 647.076 366.889 647.076 366.889C645.73 369.351 645.335 372.222 645.967 374.957C647.023 379.569 648.355 400.864 648.355 400.864L650.297 406.023L650.241 412.058C650.08 413.038 649.669 413.96 649.049 414.736C647.797 416.093 647.88 417.662 644.9 419.514C641.921 421.366 639.997 422.064 639.997 424.534C639.994 424.876 639.963 425.216 639.907 425.553C639.627 427.359 639.088 428.332 644.621 428.86C651.116 429.475 655.445 425.236 655.445 425.236C655.445 425.236 656.399 423.505 660.899 422.807C660.899 422.807 662.434 422.724 662.521 421.362C662.551 420.895 662.543 419.997 662.502 419.009C662.43 417.123 662.249 414.928 662.011 414.819C661.713 414.687 661.185 412.789 661.004 412.103H662.257C662.257 412.103 663.422 403.376 662.257 397.718C661.091 392.061 662.147 388.059 662.147 388.059L661.925 373.131C661.925 373.131 660.352 371.536 661.585 368.632C662.819 365.727 661.585 351.343 661.585 351.343C661.585 351.343 662.034 346.183 663.309 344.976C664.584 343.769 663.373 337.414 663.309 337.082L665.572 344.701C665.572 344.701 666.571 359.851 668.683 362.597L669.294 369.454C669.294 369.454 673.624 375.767 672.79 379.173C671.957 382.579 673.681 394.871 673.681 394.871V407.441C673.681 407.441 671.734 412.492 674.457 414.302L675.63 414.257C675.231 414.634 674.944 415.158 674.499 415.622C673.978 416.158 673.684 418.194 673.518 419.944C673.379 421.426 673.334 422.701 673.334 422.701C673.334 422.701 674.499 424.553 676.664 424.678C678.829 424.802 685.991 430.278 685.991 430.278C685.991 430.278 693.074 430.278 694.903 429.901L695.012 429.875C695.6 429.688 696.094 429.283 696.393 428.743C696.762 428.119 696.881 427.378 696.728 426.669C696.498 425.587 695.642 424.406 693.737 423.391C688.989 420.883 688.284 418.537 688.284 418.537L685.172 413.876H685.617C685.617 413.876 685.342 408.935 688.725 403.391L688.506 378.966C688.506 378.966 689.891 370.566 687.507 366.01C687.507 366.01 687.311 361.179 688.906 359.697C690.501 358.214 686.783 343.23 686.783 343.23C686.783 343.23 686.028 335.189 685.108 327.849C688.853 331.402 692.742 318.605 693.406 316.331H693.504C693.504 316.331 693.485 316.27 693.458 316.165C693.432 316.059 693.504 316.003 693.504 316.003C693.504 315.984 692.674 313.042 693.281 313.642C693.888 314.241 695.393 311.997 695.393 311.997C695.393 311.997 695.171 299.755 697.781 293.584C700.39 287.414 696.604 272.407 696.604 272.407ZM685.444 280.195L685.463 280.161C685.84 287.636 685.387 303.586 685.387 303.586C685.387 303.586 684.874 305.631 684.324 308.037L683.928 292.883L683.551 278.611L685.444 280.195ZM637.647 275.043C637.647 275.043 639.533 298.646 637.647 302.048C637.108 303.017 636.659 304.741 636.286 306.713C635.664 305.076 634.344 301.233 634.815 299.196C635.426 296.556 633.593 289.643 633.593 289.481C633.593 289.319 633.427 285.637 634.758 282.809C636.09 279.98 635.203 278.773 635.203 278.773C635.203 278.773 636.316 274.164 637.647 275.043Z" fill="url(#paint3_linear_18_268)"/>
<path d="M642.241 328.2C640.6 335.427 634.061 324.496 632.571 321.875L632.269 321.332L632.978 318.009L636.727 316.482C637.319 316.791 637.88 317.158 638.402 317.575C640.465 319.175 643.508 322.603 642.241 328.2ZM692.968 316.372L692.926 316.535C692.926 316.584 692.892 316.64 692.874 316.712C692.232 318.975 688.419 331.67 684.738 328.144C680.71 324.274 682.668 315.388 682.668 315.388H682.706L691.18 314.521L692.859 316.248L692.968 316.372Z" fill="#EFB7B9"/>
<path d="M688.065 378.872L688.28 403.115C684.961 408.622 685.229 413.525 685.229 413.525L674.292 413.959C671.621 412.164 673.537 407.151 673.537 407.151V394.671C673.537 394.671 671.829 382.473 672.643 379.079C673.458 375.685 669.211 369.435 669.211 369.435L668.615 362.627C666.541 359.904 665.56 344.863 665.56 344.863L663.331 337.32C663.388 337.648 664.546 343.988 663.331 345.153C662.117 346.319 661.642 351.475 661.642 351.475C661.642 351.475 662.841 365.75 661.642 368.635C660.442 371.521 661.966 373.161 661.966 373.161L662.189 387.98C662.189 387.98 661.152 391.959 662.294 397.571C663.437 403.183 662.294 411.847 662.294 411.847H650.527L650.58 405.812L648.675 400.69C648.675 400.69 647.367 379.55 646.333 374.975C645.712 372.262 646.098 369.415 647.419 366.965C647.419 366.965 645.243 363.476 645.353 361.024C645.462 358.573 643.689 353.888 643.689 353.888L641.155 336.671C641.226 333.358 640.804 330.053 639.903 326.865C638.428 321.962 636.252 315.531 636.252 315.531L638.711 315.75L651.127 316.855C651.127 316.855 681.299 314.826 682.661 316.512C682.947 317.062 683.141 317.656 683.234 318.269C684.588 324.361 686.379 343.43 686.379 343.43C686.379 343.43 690.03 358.305 688.461 359.776C686.892 361.247 687.088 366.041 687.088 366.041C689.427 370.536 688.065 378.872 688.065 378.872Z" fill="#444053"/>
<path d="M662.551 421.026C662.464 422.377 660.955 422.46 660.955 422.46C656.543 423.154 655.607 424.874 655.607 424.874C655.607 424.874 651.357 429.079 644.99 428.487C639.563 427.966 640.087 426.978 640.367 425.205C640.422 424.871 640.451 424.533 640.453 424.195C640.453 421.743 642.339 421.045 645.277 419.209C648.215 417.372 648.136 415.814 649.362 414.468C650.587 413.121 650.712 410.507 650.712 410.507C652.1 408.094 655.615 410.885 655.615 410.885C655.777 411.741 661.008 411.639 661.008 411.639C661.008 411.639 661.702 414.419 662.057 414.581C662.29 414.69 662.468 416.87 662.539 418.73C662.573 419.672 662.577 420.566 662.551 421.026Z" fill="#B07473"/>
<path opacity="0.1" d="M662.551 421.027C662.464 422.377 660.955 422.46 660.955 422.46C656.543 423.154 655.607 424.874 655.607 424.874C655.607 424.874 651.357 429.079 644.99 428.487C639.563 427.966 640.087 426.978 640.367 425.206C642.792 425.809 647.431 426.646 650.139 425.175C653.91 423.131 656.599 421.702 656.599 421.702L662.532 418.681C662.573 419.673 662.577 420.566 662.551 421.027Z" fill="black"/>
<path d="M695.808 428.302C695.519 428.84 695.032 429.246 694.45 429.434C694.416 429.446 694.381 429.455 694.345 429.46C692.546 429.837 685.599 429.837 685.599 429.837C685.599 429.837 678.557 424.384 676.445 424.259C674.333 424.135 673.175 422.298 673.175 422.298C673.175 422.298 673.217 421.031 673.353 419.56C673.518 417.821 673.809 415.788 674.318 415.268C675.261 414.287 675.45 412.94 677.588 413.797C677.588 413.797 680.605 408.475 684.166 412.586L687.847 418.172C687.847 418.172 688.54 420.499 693.202 422.992C695.069 423.991 695.91 425.168 696.133 426.243C696.286 426.946 696.17 427.68 695.808 428.302Z" fill="#B07473"/>
<path opacity="0.1" d="M695.808 428.302C695.393 428.653 694.929 429.03 694.45 429.434C694.416 429.446 694.381 429.455 694.345 429.46C692.546 429.837 685.599 429.837 685.599 429.837C685.599 429.837 678.557 424.383 676.445 424.259C674.333 424.135 673.175 422.298 673.175 422.298C673.175 422.298 673.217 421.03 673.353 419.56C675.514 420.208 678.795 421.351 679.674 422.577C681.02 424.463 685.112 427.069 685.112 427.069C685.112 427.069 692.742 426.337 696.133 426.235C696.288 426.941 696.172 427.678 695.808 428.302Z" fill="black"/>
<path d="M666.111 238.157L656.056 248.781C656.056 248.781 643.878 247.884 646.005 244.285C647.088 242.456 647.257 238.628 647.163 235.286C647.073 232.069 646.741 229.331 646.741 229.331C646.741 229.331 663.822 220.83 662.513 228.758C662.235 230.252 662.219 231.784 662.464 233.284C663.207 237.289 666.111 238.157 666.111 238.157Z" fill="#EFB7B9"/>
<path opacity="0.1" d="M662.509 228.758C662.232 230.252 662.215 231.784 662.46 233.284C661.292 234.467 659.9 235.406 658.366 236.047C656.831 236.687 655.185 237.016 653.522 237.014C651.199 237.014 648.713 235.128 646.846 234.015C646.756 230.798 646.737 229.331 646.737 229.331C646.737 229.331 663.818 220.83 662.509 228.758Z" fill="black"/>
<path d="M666.111 223.772C666.112 226.624 665.144 229.393 663.366 231.623C661.588 233.854 659.106 235.414 656.325 236.05C653.544 236.685 650.63 236.357 648.06 235.12C645.49 233.882 643.417 231.809 642.179 229.239C640.941 226.669 640.613 223.755 641.248 220.974C641.883 218.193 643.443 215.71 645.674 213.932C647.904 212.154 650.672 211.186 653.524 211.187C656.377 211.187 659.144 212.156 661.374 213.936C662.851 215.114 664.044 216.611 664.864 218.314C665.684 220.016 666.11 221.882 666.111 223.772Z" fill="#EFB7B9"/>
<path opacity="0.1" d="M683.23 318.239C680.096 325.699 659.933 325.854 659.933 325.854V317.722L658.711 317.643C659.239 319.97 657.957 325.65 657.957 325.65C642.022 327.913 638.142 318.828 638.142 318.828L638.692 315.72L651.108 316.825C651.108 316.825 681.28 314.796 682.642 316.482C682.934 317.031 683.132 317.625 683.23 318.239Z" fill="black"/>
<path d="M659.933 324.874V316.738L658.711 316.663C659.239 318.99 657.957 324.67 657.957 324.67C645.968 326.36 640.797 321.653 638.975 319.201C638.649 318.78 638.37 318.325 638.142 317.843L643.003 290.465L644.135 250.173L645.888 243.105L646.296 239.711V239.673L646.337 239.692L647.574 240.224L654.997 243.43L663.471 237.067L663.596 236.973L664.014 236.656L664.712 237.218L666.443 238.606L672.002 274.489C672.002 274.489 681.642 302.119 683.43 313.272C683.502 313.717 683.562 314.132 683.607 314.521C684.78 324.685 659.933 324.874 659.933 324.874Z" fill="#E1E7EF"/>
<path d="M655.928 244.923C656.324 244.923 656.645 244.602 656.645 244.206C656.645 243.811 656.324 243.49 655.928 243.49C655.532 243.49 655.211 243.811 655.211 244.206C655.211 244.602 655.532 244.923 655.928 244.923Z" fill="#67647E"/>
<path d="M656.26 251.459C656.656 251.459 656.977 251.138 656.977 250.742C656.977 250.347 656.656 250.026 656.26 250.026C655.864 250.026 655.543 250.347 655.543 250.742C655.543 251.138 655.864 251.459 656.26 251.459Z" fill="#67647E"/>
<path d="M656.972 262.046C657.368 262.046 657.689 261.725 657.689 261.329C657.689 260.934 657.368 260.613 656.972 260.613C656.577 260.613 656.256 260.934 656.256 261.329C656.256 261.725 656.577 262.046 656.972 262.046Z" fill="#67647E"/>
<path d="M658.16 273.444C658.556 273.444 658.877 273.123 658.877 272.727C658.877 272.332 658.556 272.011 658.16 272.011C657.765 272.011 657.444 272.332 657.444 272.727C657.444 273.123 657.765 273.444 658.16 273.444Z" fill="#67647E"/>
<path d="M658.873 284.151C659.269 284.151 659.59 283.831 659.59 283.435C659.59 283.039 659.269 282.718 658.873 282.718C658.478 282.718 658.157 283.039 658.157 283.435C658.157 283.831 658.478 284.151 658.873 284.151Z" fill="#67647E"/>
<path d="M659.59 295.553C659.986 295.553 660.307 295.232 660.307 294.836C660.307 294.44 659.986 294.12 659.59 294.12C659.194 294.12 658.874 294.44 658.874 294.836C658.874 295.232 659.194 295.553 659.59 295.553Z" fill="#67647E"/>
<path d="M659.304 306.834C659.699 306.834 660.02 306.513 660.02 306.117C660.02 305.722 659.699 305.401 659.304 305.401C658.908 305.401 658.587 305.722 658.587 306.117C658.587 306.513 658.908 306.834 659.304 306.834Z" fill="#67647E"/>
<path opacity="0.1" d="M646.801 294.448C646.801 294.448 646.001 304.933 644.538 307.98C643.075 311.028 642.411 319.586 642.411 319.586L639.017 319.208C638.691 318.787 638.411 318.332 638.183 317.851L643.045 290.473L644.176 250.181L645.93 243.113L646.337 239.718C646.35 239.708 646.366 239.702 646.382 239.699C646.573 239.609 646.781 239.564 646.992 239.568C647.202 239.571 647.409 239.622 647.597 239.718L647.763 239.801C647.714 239.941 647.665 240.084 647.619 240.231C646.292 244.399 645.794 252.085 645.794 252.085C645.794 252.085 647.702 266.142 647.917 272.682C648.132 279.222 646.801 294.448 646.801 294.448Z" fill="black"/>
<path opacity="0.1" d="M638.402 317.575C638.364 317.662 638.321 317.746 638.273 317.828C636.949 320.064 633.593 321.486 632.571 321.875L632.269 321.332L632.978 318.009L636.727 316.481C637.319 316.791 637.88 317.157 638.402 317.575Z" fill="black"/>
<path d="M629.327 264.068L626.223 265.931L623.387 278.517C623.387 278.517 619.846 289.198 622.573 296.824C625.299 304.45 626.887 308.799 626.887 308.799C626.887 308.799 627.977 317.474 629.61 318.172C631.243 318.869 631.956 319.262 631.956 319.262L632.281 321.332C632.281 321.332 636.716 319.823 638.285 317.183C639.854 314.543 637.131 307.939 637.131 307.939C637.131 307.939 634.789 302.327 635.388 299.713C635.988 297.1 634.189 290.231 634.189 290.069C634.189 289.907 634.027 286.252 635.32 283.446C636.614 280.64 635.758 279.445 635.758 279.445L634.939 271.434L629.327 264.068Z" fill="#67647E"/>
<path opacity="0.1" d="M683.486 315.882C683.486 315.882 675.261 318.99 672.643 316.259C670.026 313.529 670.301 300.796 670.301 300.796C670.301 300.796 667.797 277.257 666.213 273.391C664.629 269.525 665.459 241.623 665.459 241.623C665.459 241.623 664.387 238.021 663.471 237.067C663.413 237.004 663.347 236.95 663.275 236.905L663.595 236.973L664.727 237.218L666.458 238.606L672.017 274.489C672.017 274.489 681.657 302.12 683.445 313.272L683.486 315.882Z" fill="black"/>
<path opacity="0.1" d="M692.968 316.701H692.874C691.84 316.833 682.691 317.938 682.657 316.037C682.657 315.816 682.669 315.596 682.694 315.377L691.169 314.509L692.847 316.237C692.878 316.35 692.904 316.448 692.927 316.523L692.968 316.701Z" fill="black"/>
<path d="M684.214 251.459L690.23 254.593C690.23 254.593 695.219 267.552 696.038 273.112C696.038 273.112 699.741 287.998 697.169 294.12C694.597 300.241 694.827 312.397 694.827 312.397C694.827 312.397 693.356 314.63 692.757 314.03C692.157 313.43 692.975 316.372 692.975 316.372C692.975 316.372 682.706 317.737 682.657 315.716C682.607 313.694 685.014 304.054 685.014 304.054C685.014 304.054 685.666 281.115 684.738 277.521C683.811 273.926 684.214 251.459 684.214 251.459Z" fill="#67647E"/>
<path opacity="0.1" d="M666.269 275.892C666.269 275.892 662.875 284.17 661.8 284.717C660.725 285.264 662.019 287.44 662.019 287.44C662.019 287.44 668.178 278.833 666.269 275.892ZM664.255 246.846C664.293 246.688 660.22 250.841 659.134 251.459C658.047 252.078 663.094 251.425 664.255 246.846ZM652.911 275.235C652.911 275.235 646.699 279.256 647.514 280.84C648.328 282.424 652.911 275.235 652.911 275.235ZM664.199 333.865C664.199 333.865 669.479 337.259 677.712 338.115L664.199 333.865ZM651.504 342.038C651.504 342.038 656.407 348.193 658.643 348.359C660.88 348.525 651.504 342.038 651.504 342.038ZM658.368 366.176C658.149 366.286 655.588 371.732 652.975 371.898C650.361 372.064 658.368 366.176 658.368 366.176ZM681.091 378.106C681.091 378.106 685.949 377.02 687.028 380.505C687.028 380.505 686.703 379.415 681.091 378.106ZM677.821 398.05C677.821 398.05 683.705 396.851 684.957 398.488C686.209 400.124 677.821 398.05 677.821 398.05ZM661.166 400.83C661.166 400.883 655.174 402.029 655.411 402.791C655.649 403.553 661.8 403.443 662.019 402.244C662.061 402.095 662.072 401.939 662.051 401.786C662.031 401.632 661.979 401.485 661.899 401.352C661.819 401.22 661.713 401.105 661.587 401.015C661.461 400.925 661.318 400.862 661.166 400.83ZM675.86 406.004C675.86 406.004 685.704 404.805 685.085 406.876C684.467 408.946 675.86 406.004 675.86 406.004ZM624.315 284.717C624.372 284.879 630.798 285.751 631.669 287.821C631.669 287.821 625.352 284.879 624.372 284.879M633.359 301.554C633.359 301.554 628.019 303.243 628.396 305.804C628.773 308.365 627.856 304.609 633.359 301.554ZM630.87 314.52C630.87 314.52 632.816 311.85 634.668 312.34C636.52 312.831 630.87 314.52 630.87 314.52ZM661.37 213.935C661.182 214.117 660.972 214.274 660.744 214.403C659.194 215.301 658.779 216.666 658.036 218.277C657.357 219.736 656.607 221.294 655.23 222.109C653.457 223.176 651.119 222.784 649.275 223.719C648.457 224.147 647.786 224.809 647.347 225.621C646.908 226.433 646.72 227.357 646.808 228.275C646.928 228.983 647.105 229.681 647.336 230.361C647.752 231.832 647.942 233.358 647.898 234.887C647.904 234.933 647.904 234.98 647.898 235.026C646.318 234.238 644.922 233.126 643.8 231.763C642.677 230.4 641.854 228.816 641.384 227.114C640.914 225.412 640.807 223.63 641.07 221.884C641.333 220.138 641.961 218.467 642.912 216.979C643.863 215.492 645.117 214.221 646.591 213.249C648.065 212.277 649.728 211.627 651.47 211.339C653.212 211.052 654.995 211.134 656.703 211.581C658.411 212.027 660.007 212.828 661.385 213.932L661.37 213.935Z" fill="black"/>
<path d="M661.042 210.149C659.658 207.241 656.652 205.404 653.559 204.492C651.198 203.809 648.637 203.586 646.295 204.337C644.96 204.763 643.742 205.468 642.494 206.117C640.159 207.298 637.591 208.229 635.837 210.168C635.43 210.617 635.052 211.198 635.173 211.793C635.264 212.238 635.611 212.578 635.833 212.974C636.335 213.856 636.21 214.969 635.867 215.931C635.524 216.893 635.022 217.79 634.781 218.778C634.539 219.767 634.634 220.924 635.365 221.63C635.719 221.91 636.087 222.172 636.467 222.414C636.866 222.762 637.218 223.161 637.511 223.602L639.59 226.442C640.567 227.703 641.437 229.043 642.192 230.448C642.712 231.477 643.112 232.579 643.802 233.499C644.493 234.419 645.575 235.159 646.721 235.057C646.81 235.06 646.898 235.041 646.978 235.003C647.058 234.965 647.128 234.909 647.182 234.838C647.227 234.748 647.247 234.648 647.242 234.548C647.289 233.019 647.099 231.492 646.68 230.022C646.448 229.342 646.272 228.644 646.152 227.936C646.064 227.017 646.252 226.094 646.691 225.282C647.131 224.471 647.802 223.809 648.619 223.38C650.467 222.448 652.805 222.84 654.578 221.773C655.954 220.94 656.705 219.397 657.384 217.937C658.138 216.342 658.541 214.962 660.092 214.064C661.642 213.166 661.808 211.677 661.042 210.149Z" fill="#585268"/>
<path opacity="0.1" d="M655.404 415.882C655.404 415.882 657.32 418.334 656.83 419.722C656.339 421.11 655.404 415.882 655.404 415.882ZM681.454 422.011C681.454 422.011 681.88 418.722 683.596 418.692C685.312 418.662 685.395 418.515 686.704 419.016C688.012 419.518 689.238 420.302 688.85 420.423C688.461 420.544 686.587 418.537 684.701 419.559C683.503 420.211 682.409 421.037 681.454 422.011ZM649.66 247.537L655.03 243.765C655.03 243.765 647.144 239.103 646.205 239.76C645.266 240.416 644.621 246.3 644.621 246.3L649.66 247.537Z" fill="black"/>
<path d="M649.637 247.292L655.03 243.429C655.03 243.429 647.144 238.772 646.205 239.424C645.266 240.076 644.621 246.292 644.621 246.292L649.637 247.292Z" fill="#E1E7EF"/>
<path opacity="0.03" d="M649.637 247.292L655.03 243.429C655.03 243.429 647.144 238.772 646.205 239.424C645.266 240.076 644.621 246.292 644.621 246.292L649.637 247.292Z" fill="black"/>
<path d="M647.095 239.469L646.933 239.386C646.693 239.264 646.423 239.214 646.155 239.242C645.887 239.27 645.634 239.375 645.424 239.545L629.252 252.666C629.252 252.666 625.737 257.528 626.235 265.92L635.769 279.433C635.769 279.433 636.859 274.855 638.168 275.726C638.168 275.726 640.02 299.155 638.168 302.534C636.316 305.914 635.498 318.552 635.498 318.552L641.762 319.261C641.762 319.261 642.415 310.707 643.886 307.656C645.356 304.605 646.148 294.12 646.148 294.12C646.148 294.12 647.472 278.886 647.254 272.343C647.035 265.799 645.13 251.75 645.13 251.75C645.13 251.75 645.662 243.513 647.095 239.469Z" fill="#67647E"/>
<path opacity="0.1" d="M663.203 245.146L656.486 242.656C656.486 242.656 665.044 233.288 666.107 238.485L663.203 245.146Z" fill="black"/>
<path d="M663.203 244.81L656.486 242.325C656.486 242.325 665.044 232.952 666.107 238.149L663.203 244.81Z" fill="#E1E7EF"/>
<path opacity="0.03" d="M663.203 244.81L656.486 242.325C656.486 242.325 665.044 232.952 666.107 238.149L663.203 244.81Z" fill="black"/>
<path opacity="0.1" d="M662.988 236.848C663.084 236.831 663.183 236.851 663.264 236.904L662.988 236.848Z" fill="black"/>
<path d="M663.641 236.192L681.472 240.039C681.472 240.039 686.375 241.129 689.917 253.439C693.458 265.75 685.067 280.84 685.067 280.84L683.215 279.267L684.143 315.23C684.143 315.23 675.913 318.334 673.299 315.607C670.686 312.88 670.954 300.143 670.954 300.143C670.954 300.143 668.449 276.597 666.865 272.72C665.281 268.843 666.111 240.952 666.111 240.952C666.111 240.952 664.636 235.977 663.641 236.192Z" fill="#67647E"/>
<path opacity="0.1" d="M679.945 259.108C679.692 259.342 679.402 270.223 680.492 278.505C681.161 283.549 682.193 288.538 683.581 293.433L681.963 260.243C681.963 260.243 680.707 258.388 679.945 259.108ZM677.765 249.736C678.203 250.007 680.111 254.529 679.236 256.385C678.361 258.241 677.765 249.736 677.765 249.736ZM660.937 210.149C660.063 208.425 658.7 206.997 657.018 206.045C658.267 206.936 659.276 208.121 659.956 209.496C660.71 211.024 660.499 212.555 659.002 213.423C657.505 214.29 657.037 215.686 656.298 217.296C655.619 218.756 654.865 220.313 653.488 221.128C651.715 222.199 649.381 221.807 647.533 222.735C646.715 223.164 646.044 223.827 645.605 224.639C645.166 225.451 644.978 226.376 645.066 227.295C645.184 228.003 645.361 228.701 645.594 229.38C646.013 230.851 646.201 232.378 646.152 233.906C646.159 234.006 646.139 234.106 646.096 234.197C646.042 234.267 645.972 234.324 645.892 234.362C645.812 234.4 645.724 234.418 645.636 234.415C645.174 234.452 644.711 234.366 644.293 234.166C644.598 234.468 644.961 234.704 645.361 234.859C645.761 235.014 646.188 235.085 646.616 235.068C646.705 235.071 646.793 235.053 646.873 235.014C646.953 234.976 647.023 234.92 647.076 234.849C647.12 234.759 647.14 234.659 647.137 234.559C647.182 233.03 646.992 231.504 646.575 230.033C646.341 229.353 646.165 228.656 646.047 227.947C645.959 227.029 646.147 226.105 646.586 225.293C647.025 224.482 647.696 223.82 648.513 223.391C650.361 222.459 652.696 222.852 654.469 221.784C655.845 220.951 656.599 219.408 657.278 217.949C658.033 216.353 658.432 214.973 659.982 214.075C661.533 213.178 661.699 211.676 660.937 210.149Z" fill="black"/>
<path opacity="0.1" d="M972.17 409.418C980.71 409.418 987.633 408.467 987.633 407.294C987.633 406.122 980.71 405.171 972.17 405.171C963.63 405.171 956.707 406.122 956.707 407.294C956.707 408.467 963.63 409.418 972.17 409.418Z" fill="#00C7FA"/>
<path opacity="0.1" d="M850.95 428.728C857.019 428.728 861.94 428.053 861.94 427.22C861.94 426.386 857.019 425.711 850.95 425.711C844.88 425.711 839.959 426.386 839.959 427.22C839.959 428.053 844.88 428.728 850.95 428.728Z" fill="#00C7FA"/>
<path opacity="0.1" d="M752.611 417.546C758.681 417.546 763.601 416.87 763.601 416.037C763.601 415.204 758.681 414.528 752.611 414.528C746.541 414.528 741.621 415.204 741.621 416.037C741.621 416.87 746.541 417.546 752.611 417.546Z" fill="#00C7FA"/>
<path d="M758.664 412.605C759.357 412.041 759.86 411.279 760.109 410.421C760.297 409.557 759.928 408.516 759.098 408.199C758.17 407.845 757.178 408.49 756.428 409.138C755.677 409.787 754.813 410.53 753.833 410.391C754.338 409.932 754.716 409.35 754.93 408.701C755.144 408.053 755.187 407.36 755.055 406.691C755.01 406.414 754.893 406.153 754.715 405.936C754.199 405.386 753.263 405.623 752.649 406.057C750.687 407.434 750.14 410.1 750.129 412.495C749.933 411.632 750.099 410.73 750.091 409.855C750.084 408.98 749.846 407.969 749.096 407.509C748.634 407.254 748.114 407.124 747.587 407.132C746.708 407.098 745.724 407.189 745.124 407.834C744.37 408.633 744.57 409.976 745.219 410.851C745.867 411.726 746.859 412.288 747.772 412.895C748.502 413.33 749.125 413.925 749.594 414.634C749.65 414.733 749.696 414.838 749.729 414.947H755.258C756.493 414.321 757.638 413.533 758.664 412.605ZM978.442 404.647C979.139 404.083 979.648 403.322 979.901 402.463C980.09 401.599 979.72 400.577 978.891 400.241C977.963 399.887 976.971 400.532 976.22 401.18C975.47 401.829 974.606 402.572 973.622 402.433C974.129 401.975 974.508 401.393 974.722 400.744C974.936 400.096 974.978 399.402 974.844 398.733C974.803 398.455 974.686 398.193 974.504 397.978C973.991 397.428 973.056 397.665 972.441 398.099C970.48 399.476 969.933 402.142 969.922 404.537C969.722 403.673 969.892 402.772 969.884 401.897C969.877 401.022 969.635 400.011 968.889 399.551C968.427 399.296 967.907 399.166 967.38 399.174C966.497 399.14 965.517 399.23 964.913 399.875C964.159 400.675 964.359 402.018 965.011 402.893C965.664 403.768 966.652 404.33 967.565 404.937C968.295 405.372 968.918 405.967 969.386 406.676C969.441 406.776 969.487 406.88 969.522 406.989H975.047C976.278 406.363 977.42 405.575 978.442 404.647ZM853.933 422.279C854.625 421.714 855.13 420.952 855.381 420.095C855.566 419.228 855.196 418.209 854.37 417.874C853.442 417.519 852.45 418.16 851.7 418.813C850.949 419.465 850.086 420.201 849.101 420.065C849.608 419.606 849.986 419.025 850.2 418.376C850.415 417.728 850.457 417.035 850.323 416.365C850.281 416.087 850.163 415.827 849.984 415.611C849.467 415.06 848.536 415.298 847.917 415.731C845.956 417.112 845.409 419.774 845.398 422.173C845.202 421.309 845.368 420.408 845.364 419.533C845.36 418.658 845.115 417.647 844.368 417.187C843.906 416.933 843.387 416.803 842.86 416.81C841.977 416.78 840.996 416.867 840.393 417.511C839.639 418.315 839.839 419.658 840.491 420.529C841.143 421.4 842.132 421.962 843.041 422.573C843.78 423.014 844.41 423.617 844.881 424.338C844.935 424.437 844.981 424.54 845.017 424.647H850.538C851.771 424.015 852.913 423.218 853.933 422.279Z" fill="#00C7FA"/>
<path d="M964.763 250.181C959.814 250.083 955.447 246.575 952.973 242.321C952.325 241.305 951.917 240.154 951.781 238.956C951.798 238.683 951.844 238.413 951.917 238.149C952.076 237.75 952.202 237.339 952.294 236.92C952.315 236.752 952.315 236.582 952.294 236.414V236.392C952.415 235.479 951.879 234.6 951.208 233.97C950.536 233.341 949.718 232.884 949.028 232.277C946.901 230.41 946.256 227.415 946.214 224.564V224.413C946.237 223.195 946.335 221.969 946.324 220.747C946.341 220.053 946.31 219.359 946.233 218.669C946.03 216.942 945.373 215.184 944.016 214.083C940.474 211.213 934.519 214.2 930.857 211.484C929.963 210.824 929.242 209.84 928.164 209.598C927.345 209.402 926.497 209.666 925.701 209.93C923.001 210.82 919.991 211.993 918.935 214.618C918.331 216.127 918.501 217.82 917.947 219.337C917.57 220.351 916.902 221.222 916.404 222.188C915.994 222.912 915.794 223.736 915.827 224.568C915.785 224.998 915.846 225.433 916.004 225.835C916.191 226.316 916.491 226.744 916.879 227.083C916.737 227.383 916.56 227.664 916.351 227.921C915.661 228.766 914.601 229.369 913.885 230.184C912.557 231.723 912.606 233.816 913.263 235.626C913.919 237.437 915.096 239.085 915.903 240.846C916.253 241.6 916.536 242.468 916.17 243.23C915.918 243.758 915.39 244.158 914.979 244.614C914.376 245.29 913.999 246.136 913.9 247.035C905.818 248.88 905.814 255.371 905.814 255.371L901.454 266.361C901.454 266.361 900.756 268.209 899.945 270.649L894.778 269.725L898.346 275.737C897.664 278.185 897.185 280.455 897.343 281.594C897.343 281.594 895.74 289.138 898.591 290.454L904.89 293.286C905.162 293.451 905.455 293.578 905.761 293.664L906.017 293.777C906.109 293.822 906.21 293.845 906.312 293.845C906.414 293.845 906.514 293.822 906.606 293.777H906.708C906.836 293.79 906.965 293.772 907.085 293.724C907.226 293.65 907.337 293.528 907.398 293.381C907.399 293.369 907.399 293.358 907.398 293.347L909.284 292.8L910.883 294.686C911.603 295.191 912.308 295.632 912.999 296.028L910.54 320.619C910.54 320.619 910.14 353.304 908.937 360.745C908.488 363.502 908.484 365.381 908.654 366.659L908.608 366.742C908.906 368.843 909.68 369.258 909.68 369.258V369.228L909.725 369.258C910.089 368.304 910.521 367.378 911.018 366.486V367.021C910.996 369.797 910.909 373.678 910.641 376.201C910.151 380.493 911.89 394.712 911.89 394.712L912.489 407.649C912.587 409.844 912.078 412.023 911.018 413.948C909.597 416.531 907.745 420.163 907.624 421.774C907.619 421.862 907.619 421.95 907.624 422.038L904.471 425.707C904.471 425.707 903.264 427.567 905.98 428.317C907.439 428.725 909.962 428.317 911.984 427.838C912.868 427.636 913.657 427.139 914.223 426.43C914.789 425.721 915.098 424.842 915.099 423.935C915.62 422.153 916.495 420.494 917.671 419.058L918.181 422.034L921.575 422.875L922.009 414.717C922.185 414.258 922.265 413.767 922.243 413.276C922.91 407.475 920.67 407.996 920.67 407.996C920.727 408.051 920.765 408.122 920.779 408.2C920.741 408.136 920.704 408.068 920.67 408C919.293 405.284 919.968 400.834 919.968 400.834C919.968 400.834 921.752 387.905 922.378 384.491C922.82 382.081 922.639 374.184 922.491 369.759C922.491 369.575 922.491 369.382 922.473 369.228C927.726 369.16 934.164 368.979 938.69 368.541V369.077L937.853 399.627C937.797 401.573 937.402 403.495 936.687 405.307C936.687 405.341 936.657 405.375 936.646 405.409C935.645 407.961 935.074 410.662 934.956 413.401L934.579 423.109V423.377C933.904 423.637 932.841 424.387 932.81 426.564C932.765 429.751 938.381 428.687 938.381 428.687C943.997 428.687 944.038 422.841 944.038 422.841C944.038 422.841 944.219 417.482 944.483 413.895C944.747 410.308 943.638 411.1 943.638 411.1L943.555 421.283V421.363V412.42L943.642 411.123V411.085L943.661 410.81L944.359 400.287C944.359 400.287 949.529 382.749 950.333 379.385C950.902 376.997 950.665 369.793 950.476 365.807C950.476 365.622 950.476 365.449 950.453 365.279C952.053 365.135 953.471 365.12 954.04 365.12H954.3C954.3 365.12 954.033 336.954 953.365 326.326C952.698 315.697 951.626 305.997 948.949 303.074C947.334 301.309 945.083 295.855 943.552 291.816C946.745 293.199 950.059 294.284 953.452 295.059C961.923 296.832 960.765 289.477 960.765 289.477L959.905 275.571H959.962C959.931 271.928 959.618 268.293 959.026 264.698C958.581 261.941 957.895 259.089 956.846 256.777C957.766 256.427 958.672 256.023 959.562 255.646C961.862 254.631 964.465 253.191 964.789 250.709H964.676C964.718 250.535 964.747 250.359 964.763 250.181ZM912.256 270.299C912.278 271.735 912.222 274.225 912.139 276.982L909.45 273.391L912.146 269.016L912.256 270.299ZM949.428 283.013L944.947 281.572C945.742 280.333 946.671 279.185 947.715 278.147L948.093 277.77L947.953 277.8L948.172 277.604L948.3 277.574L948.093 277.77L948.338 277.721C948.608 278.847 949.131 279.896 949.865 280.791C951.464 282.571 949.413 283.013 949.413 283.013H949.428Z" fill="url(#paint4_linear_18_268)"/>
<path d="M922.193 412.28L921.665 422.215L918.324 421.381L917.619 417.247L922.193 412.28Z" fill="#A27772"/>
<path opacity="0.1" d="M922.193 412.28L921.665 422.215L918.324 421.381L917.619 417.247L922.193 412.28Z" fill="black"/>
<path d="M934.458 423.535L939.558 424.591L943.329 421.249V411.839L943.412 410.553V410.515L943.431 410.244L944.117 399.796C944.117 399.796 949.216 382.383 950.008 379.052C950.57 376.68 950.337 369.525 950.152 365.573C950.076 363.951 950.008 362.868 950.008 362.868L938.754 360.142L938.517 368.816L937.694 399.14C937.638 401.072 937.248 402.98 936.54 404.779L936.503 404.88C935.523 407.421 934.971 410.106 934.87 412.827L934.492 422.464V422.731L934.458 423.535Z" fill="#CC818C"/>
<path opacity="0.1" d="M943.427 410.247V410.515L943.446 410.244L943.427 410.247ZM934.458 423.535L939.558 424.591L943.329 421.249V420.45C943.318 420.627 943.262 420.799 943.167 420.95C943.072 421.101 942.941 421.226 942.786 421.313L942.733 421.343C940.977 422.273 938.986 422.667 937.008 422.475L935.017 422.305C934.837 422.325 934.661 422.368 934.492 422.433V422.701L934.458 423.535Z" fill="black"/>
<path d="M942.744 421.608L942.797 421.577C942.964 421.484 943.102 421.349 943.198 421.184C943.294 421.02 943.345 420.833 943.344 420.642L943.427 410.512C943.427 410.512 944.528 409.731 944.264 413.291C944 416.852 943.823 422.173 943.823 422.173C943.823 422.173 943.782 427.978 938.241 427.978C938.241 427.978 932.701 429.03 932.742 425.866C932.784 422.701 935.032 422.569 935.032 422.569L937.019 422.743C938.998 422.931 940.988 422.537 942.744 421.608Z" fill="#B07473"/>
<path d="M907.903 421.381C908.035 423.667 914.76 422.347 914.76 422.347L919.286 413.555C919.286 413.555 923.057 410.651 921.171 408.102C921.069 407.963 920.975 407.818 920.892 407.668V407.645C920.851 407.577 920.817 407.509 920.779 407.438C919.421 404.745 920.089 400.328 920.089 400.328C920.089 400.328 921.846 387.505 922.465 384.11C922.899 381.715 922.721 373.874 922.574 369.484C922.518 367.662 922.465 366.433 922.465 366.433L911.294 363.446V366.776C911.271 369.529 911.188 373.384 910.917 375.888C910.434 380.154 912.15 394.267 912.15 394.267L912.742 407.113C912.826 409.288 912.314 411.444 911.26 413.348C909.857 415.913 908.031 419.522 907.903 421.121C907.896 421.208 907.896 421.295 907.903 421.381Z" fill="#CC818C"/>
<path opacity="0.1" d="M907.903 421.381C908.035 423.667 914.76 422.347 914.76 422.347L919.286 413.555C919.286 413.555 923.057 410.651 921.172 408.101C921.069 407.963 920.976 407.818 920.892 407.667C920.832 408.999 919.384 412.322 919.384 412.322C919.384 412.322 915.646 419.801 914.481 421.513C913.315 423.225 908.126 421.196 907.933 421.136C907.917 421.217 907.907 421.299 907.903 421.381Z" fill="black"/>
<path d="M920.772 407.43C920.772 407.43 922.982 406.917 922.326 412.676C922.349 413.331 922.2 413.981 921.892 414.559C921.584 415.137 921.128 415.624 920.572 415.969C918.991 416.965 916.548 419.103 915.314 423.263C915.315 424.162 915.012 425.034 914.455 425.739C913.898 426.443 913.119 426.938 912.244 427.144C910.249 427.608 907.76 428.019 906.319 427.616C903.638 426.861 904.811 425.025 904.811 425.025L907.888 421.374C907.888 421.374 913.251 423.486 914.439 421.77C915.627 420.054 919.342 412.578 919.342 412.578C919.342 412.578 921.443 407.913 920.772 407.43Z" fill="#B07473"/>
<path opacity="0.1" d="M938.769 361.187L938.531 369.861C941.549 369.571 943.676 369.163 944.045 368.594C944.834 367.368 947.715 366.848 950.167 366.636C950.091 365.015 950.023 363.932 950.023 363.932L938.769 361.187ZM911.282 367.817C911.572 367.232 911.994 366.723 912.516 366.331C913.704 365.671 913.575 370.551 913.575 370.551C913.575 370.551 917.517 370.589 922.567 370.525C922.51 368.7 922.457 367.474 922.457 367.474L911.286 364.487C911.286 364.487 911.301 365.878 911.282 367.817Z" fill="black"/>
<path d="M910.011 368.979C910.011 368.979 911.331 365.407 912.516 364.751C913.7 364.094 913.575 368.971 913.575 368.971C913.575 368.971 942.594 369.235 944.046 366.991C945.498 364.747 953.938 364.883 953.938 364.883C953.938 364.883 953.674 336.916 953.014 326.363C952.354 315.81 951.298 306.181 948.662 303.281C946.953 301.395 944.513 295.327 943.027 291.276C942.209 289.062 941.67 287.452 941.67 287.452L913.971 289.036L913.745 291.276L910.803 320.695C910.803 320.695 910.426 353.13 909.219 360.53C908.012 367.93 910.011 368.979 910.011 368.979Z" fill="#444053"/>
<g opacity="0.1">
<path d="M941.809 367.01C943.257 364.77 951.702 364.902 951.702 364.902C951.702 364.902 951.438 336.935 950.778 326.382C950.118 315.829 949.062 306.2 946.426 303.3C944.717 301.414 942.277 295.346 940.791 291.295C940.105 289.436 939.614 288.003 939.475 287.591L941.624 287.471C941.624 287.471 942.164 289.081 942.982 291.295C944.491 295.346 946.908 301.422 948.617 303.3C951.257 306.2 952.309 315.829 952.969 326.382C953.629 336.935 953.878 364.883 953.878 364.883C953.878 364.883 945.437 364.747 943.989 367.01C942.748 368.926 921.394 369.013 915.194 368.998C923.144 368.96 940.678 368.722 941.809 367.01ZM910.268 364.747C910.804 364.449 911.071 365.275 911.203 366.256C910.725 367.126 910.308 368.028 909.955 368.956C909.955 368.956 909.201 368.545 908.899 366.459C909.318 365.716 909.804 365.007 910.268 364.747Z" fill="black"/>
</g>
<path d="M918.569 219.789C916.653 222.407 918.592 226.122 916.536 228.664C915.857 229.505 914.813 230.105 914.104 230.927C912.791 232.458 912.844 234.532 913.489 236.331C914.134 238.131 915.299 239.764 916.099 241.514C916.446 242.268 916.725 243.124 916.367 243.878C916.118 244.403 915.612 244.799 915.19 245.255C913.87 246.73 913.832 248.782 914.541 250.516C915.25 252.251 916.612 253.756 917.936 255.22C918.464 255.8 919.131 256.438 920.01 256.423C920.473 256.385 920.92 256.238 921.315 255.993C924.443 254.346 926.817 251.556 927.941 248.204C928.892 245.051 928.692 241.663 927.376 238.643C926.244 235.977 924.404 233.42 924.389 230.599C924.389 228.362 925.539 226.227 925.743 223.998C925.992 221.294 924.389 216.994 921.123 215.814C921.337 217.56 919.557 218.462 918.569 219.789Z" fill="#585268"/>
<path opacity="0.1" d="M918.569 219.789C916.653 222.407 918.592 226.122 916.536 228.664C915.857 229.505 914.813 230.105 914.104 230.927C912.791 232.458 912.844 234.532 913.489 236.331C914.134 238.131 915.299 239.764 916.099 241.514C916.446 242.268 916.725 243.124 916.367 243.878C916.118 244.403 915.612 244.799 915.19 245.255C913.87 246.73 913.832 248.782 914.541 250.516C915.25 252.251 916.612 253.756 917.936 255.22C918.464 255.8 919.131 256.438 920.01 256.423C920.473 256.385 920.92 256.238 921.315 255.993C924.443 254.346 926.817 251.556 927.941 248.204C928.892 245.051 928.692 241.663 927.376 238.643C926.244 235.977 924.404 233.42 924.389 230.599C924.389 228.362 925.539 226.227 925.743 223.998C925.992 221.294 924.389 216.994 921.123 215.814C921.337 217.56 919.557 218.462 918.569 219.789ZM939.837 314.879C935.997 315.083 932.384 316.731 929.024 318.598C925.663 320.465 922.412 322.596 918.795 323.908M937.449 323.923C933.651 324.288 930.111 326.008 927.478 328.77C926.546 329.758 925.743 330.867 924.77 331.813C923.278 333.263 921.437 334.302 919.425 334.831M938.238 330.803C935.176 331.652 932.404 333.323 930.223 335.634C929.635 336.268 929.092 336.95 928.511 337.58C925.332 340.975 920.843 342.804 916.51 344.516" fill="black"/>
<path d="M937.909 235.347C937.995 238.415 938.26 241.475 938.701 244.512C939.056 246.677 939.561 248.604 940.285 249.46C942.394 251.968 929.997 255.332 929.997 255.332L922.676 249.675C922.676 249.675 928.481 244.331 925.776 239.115C923.072 233.898 937.909 235.347 937.909 235.347Z" fill="#CC818C"/>
<path opacity="0.1" d="M913.745 291.276H943.027C942.209 289.062 941.669 287.452 941.669 287.452L913.971 289.036L913.745 291.276Z" fill="black"/>
<path d="M911.859 290.748H943.163C942.284 287.602 943.163 284.687 944.419 282.45C945.297 280.879 946.401 279.445 947.696 278.196L947.911 278.004L958.849 275.578L959.437 275.45C959.437 275.45 959.524 255.578 952.49 252.851C945.456 250.124 941.232 246.439 941.232 246.439L931.562 249.426L924.437 245.824C922.152 248.287 916.083 247.333 916.083 247.333C906.146 248.464 906.146 255.951 906.146 255.951C906.146 255.951 911.95 269.495 912.391 269.495C912.832 269.495 911.859 290.748 911.859 290.748Z" fill="#67647E"/>
<path opacity="0.1" d="M922.669 278.113C922.669 278.113 916.284 276.699 914.111 274.225ZM954.859 270.698L947.467 276.767C947.52 277.246 947.602 277.722 947.712 278.192L947.927 278L958.864 275.575L954.859 270.698ZM934.809 288.64C934.809 288.64 936.431 289.552 938.913 290.748H943.167C942.288 287.603 943.167 284.687 944.423 282.451L936.906 280.018C939.471 282.394 934.809 288.64 934.809 288.64Z" fill="black"/>
<path d="M910.539 253.552L906.142 255.925L901.831 266.828C901.831 266.828 897.347 278.788 897.784 281.956C897.784 281.956 896.204 289.428 899.017 290.748L906.357 294.067C906.486 294.125 906.63 294.142 906.77 294.114C906.909 294.087 907.036 294.016 907.133 293.912C907.23 293.809 907.292 293.677 907.31 293.537C907.329 293.396 907.303 293.253 907.236 293.128C906.191 291.148 905.044 288.055 906.858 286.339L904.746 281.945L912.391 269.468L914.937 265.176L910.539 253.552Z" fill="#67647E"/>
<path opacity="0.1" d="M920.312 275.616C920.689 277.17 921.979 279.557 926.233 280.459L930.917 284.283L935.884 286.546L937.906 287.463L938.766 281.262L936.816 280.195L934.553 278.954C934.553 278.954 929.427 269.661 921.307 273.587C920.934 273.76 920.632 274.056 920.451 274.426C920.27 274.795 920.221 275.215 920.312 275.616Z" fill="black"/>
<path d="M920.579 275.088C920.957 276.642 922.246 279.029 926.501 279.931L931.185 283.759L936.152 286.022L938.174 286.938L939.033 280.738L937.084 279.674L934.821 278.43C934.821 278.43 929.695 269.14 921.575 273.063C921.203 273.236 920.901 273.531 920.72 273.9C920.539 274.268 920.489 274.688 920.579 275.088Z" fill="#CC818C"/>
<path opacity="0.1" d="M929.729 243.396C935.995 243.396 941.074 238.316 941.074 232.051C941.074 225.785 935.995 220.706 929.729 220.706C923.463 220.706 918.384 225.785 918.384 232.051C918.384 238.316 923.463 243.396 929.729 243.396Z" fill="black"/>
<path d="M929.729 243.131C935.995 243.131 941.074 238.052 941.074 231.786C941.074 225.521 935.995 220.441 929.729 220.441C923.463 220.441 918.384 225.521 918.384 231.786C918.384 238.052 923.463 243.131 929.729 243.131Z" fill="#CC818C"/>
<path opacity="0.1" d="M936.755 256.023L933.361 249.393C933.361 249.393 938.354 247.379 938.716 245.04C939.078 242.702 943.499 247.778 942.541 249.46C941.583 251.143 936.755 256.023 936.755 256.023Z" fill="black"/>
<path d="M936.755 255.495L933.361 248.864C933.361 248.864 938.354 246.85 938.716 244.512C939.078 242.174 943.499 247.254 942.541 248.932C941.583 250.611 936.755 255.495 936.755 255.495Z" fill="#67647E"/>
<path d="M908.842 272.618L927.7 297.959C927.7 297.959 920.753 301.731 911.166 294.968L907.017 290.046L895.231 270.17L908.842 272.618Z" fill="#F6F8FB"/>
<path d="M905.131 286.396L906.847 286.35C906.847 286.35 917.332 276.167 919.904 281.319C922.476 286.471 913.376 291.276 913.376 291.276L910.607 292.785L906.979 293.841L904.671 290.74L905.131 286.396Z" fill="#CC818C"/>
<path opacity="0.1" d="M907.662 291.895C907.82 292.479 907.971 293.124 907.707 293.667C907.646 293.814 907.535 293.934 907.394 294.007C907.275 294.056 907.145 294.075 907.017 294.06C906.108 293.982 905.263 293.563 904.652 292.887C904.048 292.215 903.533 291.47 903.117 290.669C902.649 289.858 902.163 288.953 902.332 288.029C902.517 287.018 903.419 286.317 904.278 285.766C906.017 284.616 906.059 285.954 906.455 287.433L907.662 291.895Z" fill="black"/>
<path d="M907.398 291.895C907.556 292.479 907.707 293.124 907.443 293.667C907.382 293.814 907.271 293.934 907.13 294.007C907.011 294.056 906.881 294.075 906.753 294.06C905.845 293.982 905 293.563 904.388 292.887C903.785 292.215 903.269 291.47 902.853 290.669C902.386 289.858 901.899 288.953 902.069 288.029C902.254 287.018 903.155 286.317 904.015 285.766C905.754 284.616 905.795 285.954 906.191 287.433L907.398 291.895Z" fill="#67647E"/>
<path opacity="0.1" d="M912.388 269.469L913.266 267.986L912.497 270.74L912.388 269.469ZM936.152 286.007L938.174 286.924L939.033 280.723L937.084 279.659C938.415 281.191 937.25 284.034 936.152 286.007ZM944.265 278.811C944.265 278.811 937.736 279.207 934.968 277.427Z" fill="black"/>
<g opacity="0.1">
<path d="M943.453 282.975C944.333 281.404 945.439 279.971 946.735 278.72C947.046 278.525 947.368 278.349 947.7 278.192L957.883 276.103L958.472 275.975C958.472 275.975 958.562 256.102 951.525 253.375C947.581 251.871 943.883 249.788 940.553 247.194L941.326 246.956C941.326 246.956 945.547 250.648 952.581 253.368C959.614 256.087 959.535 275.975 959.535 275.975H958.479L948.055 277.97L947.466 278.532C946.159 279.839 945.039 281.32 944.136 282.933C942.76 285.492 942.447 288.489 943.265 291.276H942.186C941.319 288.131 942.213 285.215 943.453 282.975ZM915.661 247.903C915.831 247.88 915.993 247.854 916.167 247.835C916.88 247.936 917.599 247.995 918.32 248.012C917.432 248.036 916.544 248 915.661 247.903ZM930.589 249.943L924.147 246.696C924.281 246.59 924.407 246.476 924.524 246.353L931.245 249.747L930.589 249.943Z" fill="black"/>
</g>
<path d="M955.123 270.17L959.433 275.45L960.312 289.782C960.312 289.782 961.444 297.08 953.101 295.323C944.759 293.565 935.073 288.111 935.073 288.111C935.073 288.111 939.735 281.866 937.185 279.493L949.145 283.363C949.145 283.363 951.166 282.922 949.582 281.164C947.998 279.407 947.719 276.238 947.719 276.238L955.123 270.17Z" fill="#67647E"/>
<path opacity="0.1" d="M957.058 285.298L959.434 288.021C958.823 287.834 958.277 287.48 957.857 286.999C957.437 286.517 957.16 285.928 957.058 285.298ZM953.014 284.857L956.707 289.605L954.863 290.046L953.014 284.857ZM916.186 226.578C915.778 225.586 916.087 224.439 916.563 223.485C917.038 222.531 917.721 221.663 918.071 220.653C918.618 219.144 918.448 217.454 919.044 215.968C920.089 213.366 923.057 212.197 925.72 211.318C926.504 211.058 927.342 210.794 928.149 210.986C929.212 211.242 929.925 212.219 930.789 212.872C934.402 215.565 940.274 212.6 943.767 215.451C945.106 216.541 945.754 218.292 945.954 220.004C946.154 221.716 945.954 223.455 945.935 225.182C945.879 228.2 946.441 231.511 948.707 233.514C949.39 234.117 950.193 234.574 950.857 235.196C951.521 235.818 952.045 236.704 951.928 237.598C951.834 238.014 951.708 238.421 951.551 238.817C951.099 240.393 951.77 242.064 952.588 243.486C955.032 247.71 959.336 251.191 964.22 251.289C963.892 253.752 961.334 255.182 959.064 256.192C956.171 257.478 953.131 258.742 949.971 258.58C946.81 258.418 943.514 256.396 942.952 253.3C942.76 252.232 942.786 250.923 941.858 250.361C941.3 250.022 940.576 250.109 939.973 249.852C939.101 249.475 938.668 248.517 938.381 247.612C937.792 245.751 937.476 243.815 937.442 241.864C937.404 239.552 937.713 237.029 936.401 235.124C935.186 233.363 933.029 232.484 931.63 230.847C930.34 229.339 928.933 227.536 926.817 227.249C923.974 226.838 917.917 230.817 916.186 226.578Z" fill="black"/>
<path d="M916.186 226.05C915.778 225.058 916.087 223.911 916.563 222.957C917.038 222.003 917.721 221.135 918.071 220.125C918.618 218.616 918.448 216.926 919.044 215.44C920.089 212.838 923.057 211.669 925.72 210.79C926.504 210.53 927.342 210.266 928.149 210.458C929.212 210.715 929.925 211.691 930.789 212.344C934.402 215.041 940.274 212.072 943.767 214.924C945.106 216.017 945.754 217.764 945.954 219.476C946.154 221.188 945.954 222.927 945.935 224.654C945.879 227.672 946.441 230.983 948.707 232.986C949.39 233.589 950.193 234.046 950.857 234.668C951.521 235.29 952.045 236.177 951.928 237.071C951.834 237.487 951.708 237.895 951.551 238.293C951.099 239.865 951.77 241.54 952.588 242.958C955.032 247.182 959.336 250.663 964.22 250.761C963.892 253.224 961.334 254.654 959.064 255.665C956.171 256.954 953.131 258.214 949.971 258.052C946.81 257.89 943.514 255.868 942.952 252.753C942.76 251.685 942.786 250.377 941.858 249.815C941.3 249.475 940.576 249.562 939.973 249.306C939.101 248.928 938.668 247.97 938.381 247.065C937.792 245.205 937.476 243.269 937.442 241.317C937.404 239.005 937.713 236.482 936.401 234.577C935.186 232.816 933.029 231.937 931.63 230.3C930.34 228.792 928.933 226.989 926.817 226.702C923.974 226.329 917.917 230.289 916.186 226.05Z" fill="#585268"/>
<path opacity="0.1" d="M924.226 255.201L930.728 249.921C930.728 249.921 926.278 247.507 925.746 245.447C925.214 243.388 921.654 246.424 922.016 248.272C922.378 250.121 924.226 255.201 924.226 255.201Z" fill="black"/>
<path d="M924.49 254.409L930.992 249.129C930.992 249.129 926.542 246.715 926.01 244.655C925.478 242.596 921.918 245.632 922.28 247.48C922.642 249.329 924.49 254.409 924.49 254.409Z" fill="#67647E"/>
<path opacity="0.1" d="M931.245 254.066C931.531 254.066 931.762 253.834 931.762 253.549C931.762 253.264 931.531 253.032 931.245 253.032C930.96 253.032 930.729 253.264 930.729 253.549C930.729 253.834 930.96 254.066 931.245 254.066Z" fill="black"/>
<path opacity="0.1" d="M931.245 256.939C931.531 256.939 931.762 256.708 931.762 256.422C931.762 256.137 931.531 255.906 931.245 255.906C930.96 255.906 930.729 256.137 930.729 256.422C930.729 256.708 930.96 256.939 931.245 256.939Z" fill="black"/>
<path opacity="0.1" d="M931.245 259.81C931.531 259.81 931.762 259.578 931.762 259.293C931.762 259.008 931.531 258.776 931.245 258.776C930.96 258.776 930.729 259.008 930.729 259.293C930.729 259.578 930.96 259.81 931.245 259.81Z" fill="black"/>
<g opacity="0.1">
<path d="M918.803 218.722C919.316 217.307 919.206 215.723 919.685 214.301C919.466 214.617 919.282 214.956 919.138 215.312C918.542 216.798 918.708 218.495 918.165 220C918.165 220.027 918.139 220.057 918.128 220.087C918.394 219.653 918.62 219.196 918.803 218.722ZM959.833 254.261C956.94 255.551 953.901 256.811 950.736 256.649C947.572 256.487 944.283 254.465 943.721 251.35C943.529 250.282 943.555 248.974 942.627 248.412C942.069 248.072 941.345 248.159 940.742 247.902C939.867 247.525 939.437 246.567 939.15 245.662C938.56 243.799 938.244 241.86 938.211 239.907C938.173 237.595 938.479 235.071 937.17 233.167C935.956 231.405 933.798 230.527 932.399 228.89C931.105 227.381 929.702 225.578 927.583 225.292C924.679 224.915 918.618 228.875 916.891 224.635C916.614 223.834 916.653 222.957 917 222.184C916.875 222.395 916.755 222.606 916.645 222.821C916.155 223.776 915.846 224.922 916.268 225.914C917.999 230.153 924.056 226.174 926.964 226.57C929.08 226.857 930.487 228.671 931.781 230.168C933.18 231.79 935.333 232.684 936.548 234.449C937.86 236.335 937.555 238.877 937.592 241.185C937.623 243.138 937.939 245.075 938.528 246.937C938.814 247.838 939.248 248.823 940.119 249.177C940.723 249.43 941.447 249.347 942.005 249.686C942.929 250.245 942.907 251.572 943.095 252.621C943.657 255.736 946.953 257.761 950.114 257.924C953.274 258.086 956.318 256.822 959.207 255.532C961.289 254.608 963.608 253.322 964.231 251.218C963.22 252.602 961.455 253.541 959.833 254.261Z" fill="black"/>
</g>
</g>
<defs>
<linearGradient id="paint0_linear_18_268" x1="739.92" y1="239.617" x2="739.92" y2="171.185" gradientUnits="userSpaceOnUse">
<stop stop-color="#808080" stop-opacity="0.25"/>
<stop offset="0.54" stop-color="#808080" stop-opacity="0.12"/>
<stop offset="1" stop-color="#808080" stop-opacity="0.1"/>
</linearGradient>
<linearGradient id="paint1_linear_18_268" x1="821.913" y1="328" x2="821.913" y2="263.63" gradientUnits="userSpaceOnUse">
<stop stop-color="#808080" stop-opacity="0.25"/>
<stop offset="0.54" stop-color="#808080" stop-opacity="0.12"/>
<stop offset="1" stop-color="#808080" stop-opacity="0.1"/>
</linearGradient>
<linearGradient id="paint2_linear_18_268" x1="638.391" y1="228.668" x2="638.391" y2="228.6" gradientUnits="userSpaceOnUse">
<stop stop-color="#808080" stop-opacity="0.25"/>
<stop offset="0.54" stop-color="#808080" stop-opacity="0.12"/>
<stop offset="1" stop-color="#808080" stop-opacity="0.1"/>
</linearGradient>
<linearGradient id="paint3_linear_18_268" x1="659.703" y1="430.278" x2="659.703" y2="202.666" gradientUnits="userSpaceOnUse">
<stop stop-color="#808080" stop-opacity="0.25"/>
<stop offset="0.54" stop-color="#808080" stop-opacity="0.12"/>
<stop offset="1" stop-color="#808080" stop-opacity="0.1"/>
</linearGradient>
<linearGradient id="paint4_linear_18_268" x1="929.759" y1="428.842" x2="929.759" y2="209.515" gradientUnits="userSpaceOnUse">
<stop stop-color="#808080" stop-opacity="0.25"/>
<stop offset="0.54" stop-color="#808080" stop-opacity="0.12"/>
<stop offset="1" stop-color="#808080" stop-opacity="0.1"/>
</linearGradient>
<clipPath id="clip0_18_268">
<rect width="1069" height="103" fill="white" transform="translate(0 413)"/>
</clipPath>
<clipPath id="clip1_18_268">
<rect width="1074" height="123" fill="white" transform="translate(4)"/>
</clipPath>
<clipPath id="clip2_18_268">
<rect width="386" height="316" fill="white" transform="translate(607 120)"/>
</clipPath>
</defs>
</svg>
